<mxfile host="app.diagrams.net" modified="2023-07-13T09:13:50.643Z" agent="Mozilla/5.0 (Windows NT 10.0; Win64; x64) AppleWebKit/537.36 (KHTML, like Gecko) Chrome/114.0.0.0 Safari/537.36 Edg/114.0.1823.67" etag="iUNCfTwASqipU0b0ohFl" version="21.6.1" type="github">
  <diagram name="Page-1" id="QvPLcioUeX84yGDwUDOU">
    <mxGraphModel dx="1050" dy="1641" grid="1" gridSize="10" guides="1" tooltips="1" connect="1" arrows="1" fold="1" page="1" pageScale="1" pageWidth="850" pageHeight="1100" math="0" shadow="0">
      <root>
        <mxCell id="0" />
        <mxCell id="1" parent="0" />
        <mxCell id="nhWFI6asB0Gc7cAQbuDx-1" value="Main Engine 1&lt;br&gt;" style="whiteSpace=wrap;html=1;aspect=fixed;" parent="1" vertex="1">
          <mxGeometry x="40" y="190" width="80" height="80" as="geometry" />
        </mxCell>
        <mxCell id="nhWFI6asB0Gc7cAQbuDx-2" value="Aux Engine 1" style="whiteSpace=wrap;html=1;aspect=fixed;" parent="1" vertex="1">
          <mxGeometry x="40" y="680" width="80" height="80" as="geometry" />
        </mxCell>
        <mxCell id="nhWFI6asB0Gc7cAQbuDx-3" value="" style="endArrow=classic;html=1;rounded=0;exitX=1;exitY=0.5;exitDx=0;exitDy=0;entryX=0;entryY=0.5;entryDx=0;entryDy=0;" parent="1" source="nhWFI6asB0Gc7cAQbuDx-1" target="nhWFI6asB0Gc7cAQbuDx-8" edge="1">
          <mxGeometry width="50" height="50" relative="1" as="geometry">
            <mxPoint x="380" y="280" as="sourcePoint" />
            <mxPoint x="200" y="80" as="targetPoint" />
          </mxGeometry>
        </mxCell>
        <mxCell id="nhWFI6asB0Gc7cAQbuDx-4" value="" style="endArrow=classic;html=1;rounded=0;exitX=1;exitY=0.5;exitDx=0;exitDy=0;entryX=0;entryY=0.5;entryDx=0;entryDy=0;" parent="1" source="nhWFI6asB0Gc7cAQbuDx-1" target="nhWFI6asB0Gc7cAQbuDx-9" edge="1">
          <mxGeometry width="50" height="50" relative="1" as="geometry">
            <mxPoint x="380" y="280" as="sourcePoint" />
            <mxPoint x="200" y="120" as="targetPoint" />
          </mxGeometry>
        </mxCell>
        <mxCell id="nhWFI6asB0Gc7cAQbuDx-5" value="" style="endArrow=classic;html=1;rounded=0;exitX=1;exitY=0.5;exitDx=0;exitDy=0;entryX=0;entryY=0.5;entryDx=0;entryDy=0;" parent="1" source="nhWFI6asB0Gc7cAQbuDx-1" target="nhWFI6asB0Gc7cAQbuDx-10" edge="1">
          <mxGeometry width="50" height="50" relative="1" as="geometry">
            <mxPoint x="380" y="280" as="sourcePoint" />
            <mxPoint x="200" y="160" as="targetPoint" />
          </mxGeometry>
        </mxCell>
        <mxCell id="nhWFI6asB0Gc7cAQbuDx-7" value="" style="endArrow=classic;html=1;rounded=0;exitX=1;exitY=0.5;exitDx=0;exitDy=0;entryX=0;entryY=0.5;entryDx=0;entryDy=0;" parent="1" source="nhWFI6asB0Gc7cAQbuDx-1" target="nhWFI6asB0Gc7cAQbuDx-11" edge="1">
          <mxGeometry width="50" height="50" relative="1" as="geometry">
            <mxPoint x="120" y="120" as="sourcePoint" />
            <mxPoint x="200" y="200" as="targetPoint" />
          </mxGeometry>
        </mxCell>
        <mxCell id="nhWFI6asB0Gc7cAQbuDx-8" value="Temperature" style="rounded=1;whiteSpace=wrap;html=1;" parent="1" vertex="1">
          <mxGeometry x="200" y="-20" width="120" height="20" as="geometry" />
        </mxCell>
        <mxCell id="nhWFI6asB0Gc7cAQbuDx-9" value="Pressure" style="rounded=1;whiteSpace=wrap;html=1;" parent="1" vertex="1">
          <mxGeometry x="200" y="80" width="120" height="20" as="geometry" />
        </mxCell>
        <mxCell id="nhWFI6asB0Gc7cAQbuDx-10" value="RPM" style="rounded=1;whiteSpace=wrap;html=1;" parent="1" vertex="1">
          <mxGeometry x="200" y="180" width="120" height="20" as="geometry" />
        </mxCell>
        <mxCell id="nhWFI6asB0Gc7cAQbuDx-11" value="Alarm" style="rounded=1;whiteSpace=wrap;html=1;" parent="1" vertex="1">
          <mxGeometry x="200" y="280" width="120" height="20" as="geometry" />
        </mxCell>
        <mxCell id="nhWFI6asB0Gc7cAQbuDx-12" value="Cooling Water Temperature" style="rounded=1;whiteSpace=wrap;html=1;" parent="1" vertex="1">
          <mxGeometry x="362" y="-40" width="160" height="20" as="geometry" />
        </mxCell>
        <mxCell id="nhWFI6asB0Gc7cAQbuDx-13" value="" style="endArrow=classic;html=1;rounded=0;exitX=1;exitY=0.5;exitDx=0;exitDy=0;entryX=0;entryY=0.5;entryDx=0;entryDy=0;" parent="1" source="nhWFI6asB0Gc7cAQbuDx-8" target="nhWFI6asB0Gc7cAQbuDx-12" edge="1">
          <mxGeometry width="50" height="50" relative="1" as="geometry">
            <mxPoint x="382" y="180" as="sourcePoint" />
            <mxPoint x="432" y="130" as="targetPoint" />
          </mxGeometry>
        </mxCell>
        <mxCell id="nhWFI6asB0Gc7cAQbuDx-14" value="&amp;nbsp;Exhaust Temperature" style="rounded=1;whiteSpace=wrap;html=1;" parent="1" vertex="1">
          <mxGeometry x="362" width="160" height="20" as="geometry" />
        </mxCell>
        <mxCell id="nhWFI6asB0Gc7cAQbuDx-15" value="" style="endArrow=classic;html=1;rounded=0;exitX=1;exitY=0.5;exitDx=0;exitDy=0;entryX=0;entryY=0.5;entryDx=0;entryDy=0;" parent="1" source="nhWFI6asB0Gc7cAQbuDx-8" target="nhWFI6asB0Gc7cAQbuDx-14" edge="1">
          <mxGeometry width="50" height="50" relative="1" as="geometry">
            <mxPoint x="382" y="130" as="sourcePoint" />
            <mxPoint x="432" y="80" as="targetPoint" />
          </mxGeometry>
        </mxCell>
        <mxCell id="nhWFI6asB0Gc7cAQbuDx-18" value="" style="endArrow=classic;html=1;rounded=0;exitX=1;exitY=0.5;exitDx=0;exitDy=0;entryX=0;entryY=0.5;entryDx=0;entryDy=0;" parent="1" source="nhWFI6asB0Gc7cAQbuDx-9" target="nhWFI6asB0Gc7cAQbuDx-19" edge="1">
          <mxGeometry width="50" height="50" relative="1" as="geometry">
            <mxPoint x="382" y="110" as="sourcePoint" />
            <mxPoint x="362" y="60" as="targetPoint" />
          </mxGeometry>
        </mxCell>
        <mxCell id="nhWFI6asB0Gc7cAQbuDx-19" value="Lub Oil Pressure" style="rounded=1;whiteSpace=wrap;html=1;" parent="1" vertex="1">
          <mxGeometry x="362" y="60" width="160" height="20" as="geometry" />
        </mxCell>
        <mxCell id="nhWFI6asB0Gc7cAQbuDx-20" value="Fuel Oil Pressure" style="rounded=1;whiteSpace=wrap;html=1;" parent="1" vertex="1">
          <mxGeometry x="362" y="100" width="160" height="20" as="geometry" />
        </mxCell>
        <mxCell id="nhWFI6asB0Gc7cAQbuDx-21" value="" style="endArrow=classic;html=1;rounded=0;exitX=1;exitY=0.5;exitDx=0;exitDy=0;entryX=0;entryY=0.5;entryDx=0;entryDy=0;" parent="1" source="nhWFI6asB0Gc7cAQbuDx-9" target="nhWFI6asB0Gc7cAQbuDx-20" edge="1">
          <mxGeometry width="50" height="50" relative="1" as="geometry">
            <mxPoint x="382" y="150" as="sourcePoint" />
            <mxPoint x="432" y="100" as="targetPoint" />
          </mxGeometry>
        </mxCell>
        <mxCell id="nhWFI6asB0Gc7cAQbuDx-24" value="Main RPM" style="rounded=1;whiteSpace=wrap;html=1;" parent="1" vertex="1">
          <mxGeometry x="362" y="180" width="160" height="20" as="geometry" />
        </mxCell>
        <mxCell id="nhWFI6asB0Gc7cAQbuDx-25" value="" style="endArrow=classic;html=1;rounded=0;exitX=1;exitY=0.5;exitDx=0;exitDy=0;entryX=0;entryY=0.5;entryDx=0;entryDy=0;" parent="1" source="nhWFI6asB0Gc7cAQbuDx-1" target="nhWFI6asB0Gc7cAQbuDx-26" edge="1">
          <mxGeometry width="50" height="50" relative="1" as="geometry">
            <mxPoint x="310" y="310" as="sourcePoint" />
            <mxPoint x="200" y="520" as="targetPoint" />
          </mxGeometry>
        </mxCell>
        <mxCell id="nhWFI6asB0Gc7cAQbuDx-26" value="Tank Level" style="rounded=1;whiteSpace=wrap;html=1;" parent="1" vertex="1">
          <mxGeometry x="200" y="380" width="120" height="20" as="geometry" />
        </mxCell>
        <mxCell id="nhWFI6asB0Gc7cAQbuDx-27" value="Sump Tank" style="rounded=1;whiteSpace=wrap;html=1;" parent="1" vertex="1">
          <mxGeometry x="362" y="380" width="160" height="20" as="geometry" />
        </mxCell>
        <mxCell id="nhWFI6asB0Gc7cAQbuDx-28" value="" style="endArrow=classic;html=1;rounded=0;exitX=1;exitY=0.5;exitDx=0;exitDy=0;entryX=0;entryY=0.5;entryDx=0;entryDy=0;" parent="1" source="nhWFI6asB0Gc7cAQbuDx-26" target="nhWFI6asB0Gc7cAQbuDx-27" edge="1">
          <mxGeometry width="50" height="50" relative="1" as="geometry">
            <mxPoint x="392" y="420" as="sourcePoint" />
            <mxPoint x="442" y="370" as="targetPoint" />
          </mxGeometry>
        </mxCell>
        <mxCell id="nhWFI6asB0Gc7cAQbuDx-29" value="" style="endArrow=classic;html=1;rounded=0;exitX=1;exitY=0.5;exitDx=0;exitDy=0;entryX=0;entryY=0.5;entryDx=0;entryDy=0;" parent="1" source="nhWFI6asB0Gc7cAQbuDx-24" target="nhWFI6asB0Gc7cAQbuDx-31" edge="1">
          <mxGeometry width="50" height="50" relative="1" as="geometry">
            <mxPoint x="542" y="330" as="sourcePoint" />
            <mxPoint x="562" y="170" as="targetPoint" />
          </mxGeometry>
        </mxCell>
        <mxCell id="nhWFI6asB0Gc7cAQbuDx-30" value="" style="endArrow=classic;html=1;rounded=0;exitX=1;exitY=0.5;exitDx=0;exitDy=0;entryX=0;entryY=0.5;entryDx=0;entryDy=0;" parent="1" source="nhWFI6asB0Gc7cAQbuDx-10" target="nhWFI6asB0Gc7cAQbuDx-24" edge="1">
          <mxGeometry width="50" height="50" relative="1" as="geometry">
            <mxPoint x="592" y="270" as="sourcePoint" />
            <mxPoint x="642" y="220" as="targetPoint" />
          </mxGeometry>
        </mxCell>
        <mxCell id="nhWFI6asB0Gc7cAQbuDx-31" value="Movement" style="rounded=1;whiteSpace=wrap;html=1;" parent="1" vertex="1">
          <mxGeometry x="562" y="160" width="120" height="20" as="geometry" />
        </mxCell>
        <mxCell id="nhWFI6asB0Gc7cAQbuDx-32" value="Speed" style="rounded=1;whiteSpace=wrap;html=1;" parent="1" vertex="1">
          <mxGeometry x="562" y="200" width="120" height="20" as="geometry" />
        </mxCell>
        <mxCell id="nhWFI6asB0Gc7cAQbuDx-33" value="" style="endArrow=classic;html=1;rounded=0;exitX=1;exitY=0.5;exitDx=0;exitDy=0;entryX=0;entryY=0.5;entryDx=0;entryDy=0;" parent="1" source="nhWFI6asB0Gc7cAQbuDx-24" target="nhWFI6asB0Gc7cAQbuDx-32" edge="1">
          <mxGeometry width="50" height="50" relative="1" as="geometry">
            <mxPoint x="572" y="270" as="sourcePoint" />
            <mxPoint x="622" y="220" as="targetPoint" />
          </mxGeometry>
        </mxCell>
        <mxCell id="nhWFI6asB0Gc7cAQbuDx-34" value="" style="endArrow=classic;html=1;rounded=0;exitX=1;exitY=0.5;exitDx=0;exitDy=0;entryX=0;entryY=0.5;entryDx=0;entryDy=0;" parent="1" source="nhWFI6asB0Gc7cAQbuDx-1" target="nhWFI6asB0Gc7cAQbuDx-35" edge="1">
          <mxGeometry width="50" height="50" relative="1" as="geometry">
            <mxPoint x="320" y="370" as="sourcePoint" />
            <mxPoint x="200" y="480" as="targetPoint" />
          </mxGeometry>
        </mxCell>
        <mxCell id="nhWFI6asB0Gc7cAQbuDx-35" value="Running Hours" style="rounded=1;whiteSpace=wrap;html=1;" parent="1" vertex="1">
          <mxGeometry x="200" y="460" width="120" height="20" as="geometry" />
        </mxCell>
        <mxCell id="nhWFI6asB0Gc7cAQbuDx-36" value="Active Time" style="rounded=1;whiteSpace=wrap;html=1;" parent="1" vertex="1">
          <mxGeometry x="360" y="240" width="160" height="20" as="geometry" />
        </mxCell>
        <mxCell id="nhWFI6asB0Gc7cAQbuDx-37" value="Description" style="rounded=1;whiteSpace=wrap;html=1;" parent="1" vertex="1">
          <mxGeometry x="360" y="280" width="160" height="20" as="geometry" />
        </mxCell>
        <mxCell id="nhWFI6asB0Gc7cAQbuDx-38" value="Status" style="rounded=1;whiteSpace=wrap;html=1;" parent="1" vertex="1">
          <mxGeometry x="360" y="320" width="160" height="20" as="geometry" />
        </mxCell>
        <mxCell id="nhWFI6asB0Gc7cAQbuDx-39" value="" style="endArrow=classic;html=1;rounded=0;exitX=1;exitY=0.5;exitDx=0;exitDy=0;entryX=0;entryY=0.5;entryDx=0;entryDy=0;" parent="1" source="nhWFI6asB0Gc7cAQbuDx-11" target="nhWFI6asB0Gc7cAQbuDx-36" edge="1">
          <mxGeometry width="50" height="50" relative="1" as="geometry">
            <mxPoint x="550" y="300" as="sourcePoint" />
            <mxPoint x="600" y="250" as="targetPoint" />
          </mxGeometry>
        </mxCell>
        <mxCell id="nhWFI6asB0Gc7cAQbuDx-40" value="" style="endArrow=classic;html=1;rounded=0;exitX=1;exitY=0.5;exitDx=0;exitDy=0;entryX=0;entryY=0.5;entryDx=0;entryDy=0;" parent="1" source="nhWFI6asB0Gc7cAQbuDx-11" target="nhWFI6asB0Gc7cAQbuDx-37" edge="1">
          <mxGeometry width="50" height="50" relative="1" as="geometry">
            <mxPoint x="550" y="300" as="sourcePoint" />
            <mxPoint x="600" y="250" as="targetPoint" />
          </mxGeometry>
        </mxCell>
        <mxCell id="nhWFI6asB0Gc7cAQbuDx-41" value="" style="endArrow=classic;html=1;rounded=0;exitX=1;exitY=0.5;exitDx=0;exitDy=0;entryX=0;entryY=0.5;entryDx=0;entryDy=0;" parent="1" source="nhWFI6asB0Gc7cAQbuDx-11" target="nhWFI6asB0Gc7cAQbuDx-38" edge="1">
          <mxGeometry width="50" height="50" relative="1" as="geometry">
            <mxPoint x="550" y="300" as="sourcePoint" />
            <mxPoint x="600" y="250" as="targetPoint" />
          </mxGeometry>
        </mxCell>
        <mxCell id="nhWFI6asB0Gc7cAQbuDx-42" value="Temperature" style="rounded=1;whiteSpace=wrap;html=1;" parent="1" vertex="1">
          <mxGeometry x="200" y="710" width="120" height="20" as="geometry" />
        </mxCell>
        <mxCell id="nhWFI6asB0Gc7cAQbuDx-43" value="Pressure" style="rounded=1;whiteSpace=wrap;html=1;" parent="1" vertex="1">
          <mxGeometry x="200" y="760" width="120" height="20" as="geometry" />
        </mxCell>
        <mxCell id="nhWFI6asB0Gc7cAQbuDx-44" value="RPM" style="rounded=1;whiteSpace=wrap;html=1;" parent="1" vertex="1">
          <mxGeometry x="200" y="610" width="120" height="20" as="geometry" />
        </mxCell>
        <mxCell id="nhWFI6asB0Gc7cAQbuDx-45" value="Running Hours" style="rounded=1;whiteSpace=wrap;html=1;" parent="1" vertex="1">
          <mxGeometry x="200" y="810" width="120" height="20" as="geometry" />
        </mxCell>
        <mxCell id="nhWFI6asB0Gc7cAQbuDx-46" value="Load" style="rounded=1;whiteSpace=wrap;html=1;" parent="1" vertex="1">
          <mxGeometry x="200" y="660" width="120" height="20" as="geometry" />
        </mxCell>
        <mxCell id="nhWFI6asB0Gc7cAQbuDx-49" value="" style="edgeStyle=none;orthogonalLoop=1;jettySize=auto;html=1;rounded=0;exitX=1;exitY=0.5;exitDx=0;exitDy=0;entryX=0;entryY=0.5;entryDx=0;entryDy=0;" parent="1" source="nhWFI6asB0Gc7cAQbuDx-2" target="nhWFI6asB0Gc7cAQbuDx-42" edge="1">
          <mxGeometry width="100" relative="1" as="geometry">
            <mxPoint x="340" y="740" as="sourcePoint" />
            <mxPoint x="440" y="740" as="targetPoint" />
            <Array as="points" />
          </mxGeometry>
        </mxCell>
        <mxCell id="nhWFI6asB0Gc7cAQbuDx-50" value="" style="edgeStyle=none;orthogonalLoop=1;jettySize=auto;html=1;rounded=0;exitX=1;exitY=0.5;exitDx=0;exitDy=0;entryX=0;entryY=0.5;entryDx=0;entryDy=0;" parent="1" source="nhWFI6asB0Gc7cAQbuDx-2" target="nhWFI6asB0Gc7cAQbuDx-46" edge="1">
          <mxGeometry width="100" relative="1" as="geometry">
            <mxPoint x="80" y="610" as="sourcePoint" />
            <mxPoint x="180" y="610" as="targetPoint" />
            <Array as="points" />
          </mxGeometry>
        </mxCell>
        <mxCell id="nhWFI6asB0Gc7cAQbuDx-51" value="" style="edgeStyle=none;orthogonalLoop=1;jettySize=auto;html=1;rounded=0;exitX=1;exitY=0.5;exitDx=0;exitDy=0;entryX=0;entryY=0.5;entryDx=0;entryDy=0;" parent="1" source="nhWFI6asB0Gc7cAQbuDx-2" target="nhWFI6asB0Gc7cAQbuDx-44" edge="1">
          <mxGeometry width="100" relative="1" as="geometry">
            <mxPoint x="370" y="650" as="sourcePoint" />
            <mxPoint x="470" y="650" as="targetPoint" />
            <Array as="points" />
          </mxGeometry>
        </mxCell>
        <mxCell id="nhWFI6asB0Gc7cAQbuDx-52" value="" style="edgeStyle=none;orthogonalLoop=1;jettySize=auto;html=1;rounded=0;exitX=1;exitY=0.5;exitDx=0;exitDy=0;entryX=0;entryY=0.5;entryDx=0;entryDy=0;" parent="1" source="nhWFI6asB0Gc7cAQbuDx-2" target="nhWFI6asB0Gc7cAQbuDx-43" edge="1">
          <mxGeometry width="100" relative="1" as="geometry">
            <mxPoint x="350" y="620" as="sourcePoint" />
            <mxPoint x="450" y="620" as="targetPoint" />
            <Array as="points" />
          </mxGeometry>
        </mxCell>
        <mxCell id="nhWFI6asB0Gc7cAQbuDx-53" value="" style="edgeStyle=none;orthogonalLoop=1;jettySize=auto;html=1;rounded=0;exitX=1;exitY=0.5;exitDx=0;exitDy=0;entryX=0;entryY=0.5;entryDx=0;entryDy=0;" parent="1" source="nhWFI6asB0Gc7cAQbuDx-2" target="nhWFI6asB0Gc7cAQbuDx-45" edge="1">
          <mxGeometry width="100" relative="1" as="geometry">
            <mxPoint x="370" y="620" as="sourcePoint" />
            <mxPoint x="470" y="620" as="targetPoint" />
            <Array as="points" />
          </mxGeometry>
        </mxCell>
        <mxCell id="nhWFI6asB0Gc7cAQbuDx-54" value="Cooling Water Temperature" style="rounded=1;whiteSpace=wrap;html=1;" parent="1" vertex="1">
          <mxGeometry x="360" y="690" width="180" height="20" as="geometry" />
        </mxCell>
        <mxCell id="nhWFI6asB0Gc7cAQbuDx-55" value="Lub Oil Pressure" style="rounded=1;whiteSpace=wrap;html=1;" parent="1" vertex="1">
          <mxGeometry x="360" y="760" width="180" height="20" as="geometry" />
        </mxCell>
        <mxCell id="nhWFI6asB0Gc7cAQbuDx-56" value="Fuel Oil Pressure" style="rounded=1;whiteSpace=wrap;html=1;" parent="1" vertex="1">
          <mxGeometry x="360" y="730" width="180" height="20" as="geometry" />
        </mxCell>
        <mxCell id="nhWFI6asB0Gc7cAQbuDx-57" value="" style="endArrow=classic;html=1;rounded=0;exitX=1;exitY=0.5;exitDx=0;exitDy=0;entryX=0;entryY=0.5;entryDx=0;entryDy=0;" parent="1" source="nhWFI6asB0Gc7cAQbuDx-42" target="nhWFI6asB0Gc7cAQbuDx-54" edge="1">
          <mxGeometry width="50" height="50" relative="1" as="geometry">
            <mxPoint x="450" y="750" as="sourcePoint" />
            <mxPoint x="500" y="700" as="targetPoint" />
          </mxGeometry>
        </mxCell>
        <mxCell id="nhWFI6asB0Gc7cAQbuDx-58" value="" style="endArrow=classic;html=1;rounded=0;exitX=1;exitY=0.5;exitDx=0;exitDy=0;entryX=0;entryY=0.5;entryDx=0;entryDy=0;" parent="1" source="nhWFI6asB0Gc7cAQbuDx-42" target="nhWFI6asB0Gc7cAQbuDx-56" edge="1">
          <mxGeometry width="50" height="50" relative="1" as="geometry">
            <mxPoint x="450" y="750" as="sourcePoint" />
            <mxPoint x="500" y="700" as="targetPoint" />
          </mxGeometry>
        </mxCell>
        <mxCell id="nhWFI6asB0Gc7cAQbuDx-59" value="" style="endArrow=classic;html=1;rounded=0;exitX=1;exitY=0.5;exitDx=0;exitDy=0;entryX=0;entryY=0.5;entryDx=0;entryDy=0;" parent="1" source="nhWFI6asB0Gc7cAQbuDx-43" target="nhWFI6asB0Gc7cAQbuDx-55" edge="1">
          <mxGeometry width="50" height="50" relative="1" as="geometry">
            <mxPoint x="450" y="780" as="sourcePoint" />
            <mxPoint x="500" y="730" as="targetPoint" />
          </mxGeometry>
        </mxCell>
        <mxCell id="Hi4RVoLJQUnYDtdpyPbf-1" value="User" style="whiteSpace=wrap;html=1;aspect=fixed;" parent="1" vertex="1">
          <mxGeometry x="50" y="2740" width="80" height="80" as="geometry" />
        </mxCell>
        <mxCell id="Hi4RVoLJQUnYDtdpyPbf-2" value="Parameter" style="whiteSpace=wrap;html=1;aspect=fixed;" parent="1" vertex="1">
          <mxGeometry x="40" y="1680" width="80" height="80" as="geometry" />
        </mxCell>
        <mxCell id="Hi4RVoLJQUnYDtdpyPbf-3" value="Time Record" style="rounded=1;whiteSpace=wrap;html=1;" parent="1" vertex="1">
          <mxGeometry x="198" y="-90" width="120" height="20" as="geometry" />
        </mxCell>
        <mxCell id="Hi4RVoLJQUnYDtdpyPbf-4" value="" style="endArrow=classic;html=1;rounded=0;exitX=1;exitY=0.5;exitDx=0;exitDy=0;entryX=0;entryY=0.5;entryDx=0;entryDy=0;" parent="1" source="nhWFI6asB0Gc7cAQbuDx-1" target="Hi4RVoLJQUnYDtdpyPbf-3" edge="1">
          <mxGeometry width="50" height="50" relative="1" as="geometry">
            <mxPoint x="200" y="380" as="sourcePoint" />
            <mxPoint x="250" y="330" as="targetPoint" />
          </mxGeometry>
        </mxCell>
        <mxCell id="Hi4RVoLJQUnYDtdpyPbf-6" value="Id" style="rounded=1;whiteSpace=wrap;html=1;" parent="1" vertex="1">
          <mxGeometry x="200" y="-160" width="120" height="20" as="geometry" />
        </mxCell>
        <mxCell id="Hi4RVoLJQUnYDtdpyPbf-7" value="" style="endArrow=classic;html=1;rounded=0;exitX=1;exitY=0.5;exitDx=0;exitDy=0;entryX=0;entryY=0.5;entryDx=0;entryDy=0;" parent="1" source="nhWFI6asB0Gc7cAQbuDx-1" target="Hi4RVoLJQUnYDtdpyPbf-6" edge="1">
          <mxGeometry width="50" height="50" relative="1" as="geometry">
            <mxPoint x="210" y="120" as="sourcePoint" />
            <mxPoint x="260" y="70" as="targetPoint" />
          </mxGeometry>
        </mxCell>
        <mxCell id="Hi4RVoLJQUnYDtdpyPbf-8" value="" style="endArrow=classic;html=1;rounded=0;exitX=1;exitY=0.5;exitDx=0;exitDy=0;entryX=0;entryY=0.5;entryDx=0;entryDy=0;" parent="1" source="Hi4RVoLJQUnYDtdpyPbf-2" target="Hi4RVoLJQUnYDtdpyPbf-9" edge="1">
          <mxGeometry width="50" height="50" relative="1" as="geometry">
            <mxPoint x="210" y="1610" as="sourcePoint" />
            <mxPoint x="160" y="1610" as="targetPoint" />
          </mxGeometry>
        </mxCell>
        <mxCell id="Hi4RVoLJQUnYDtdpyPbf-9" value="Main Engine" style="rounded=1;whiteSpace=wrap;html=1;" parent="1" vertex="1">
          <mxGeometry x="180" y="1350" width="120" height="30" as="geometry" />
        </mxCell>
        <mxCell id="Hi4RVoLJQUnYDtdpyPbf-11" value="Aux Engine" style="rounded=1;whiteSpace=wrap;html=1;" parent="1" vertex="1">
          <mxGeometry x="180" y="2280" width="120" height="30" as="geometry" />
        </mxCell>
        <mxCell id="Hi4RVoLJQUnYDtdpyPbf-13" value="" style="endArrow=classic;html=1;rounded=0;exitX=1;exitY=0.5;exitDx=0;exitDy=0;entryX=0;entryY=0.5;entryDx=0;entryDy=0;" parent="1" source="Hi4RVoLJQUnYDtdpyPbf-9" target="Hi4RVoLJQUnYDtdpyPbf-14" edge="1">
          <mxGeometry width="50" height="50" relative="1" as="geometry">
            <mxPoint x="410" y="1570" as="sourcePoint" />
            <mxPoint x="360" y="1290" as="targetPoint" />
          </mxGeometry>
        </mxCell>
        <mxCell id="Hi4RVoLJQUnYDtdpyPbf-14" value="Start Stop Time Delay" style="rounded=1;whiteSpace=wrap;html=1;" parent="1" vertex="1">
          <mxGeometry x="400" y="1250" width="190" height="30" as="geometry" />
        </mxCell>
        <mxCell id="Hi4RVoLJQUnYDtdpyPbf-15" value="Engine Revolution" style="rounded=1;whiteSpace=wrap;html=1;" parent="1" vertex="1">
          <mxGeometry x="400" y="1320" width="190" height="30" as="geometry" />
        </mxCell>
        <mxCell id="Hi4RVoLJQUnYDtdpyPbf-16" value="Lub oil Pressure" style="rounded=1;whiteSpace=wrap;html=1;" parent="1" vertex="1">
          <mxGeometry x="400" y="1470" width="190" height="30" as="geometry" />
        </mxCell>
        <mxCell id="Hi4RVoLJQUnYDtdpyPbf-17" value="Fuel oil Pressure" style="rounded=1;whiteSpace=wrap;html=1;" parent="1" vertex="1">
          <mxGeometry x="400" y="1570" width="190" height="30" as="geometry" />
        </mxCell>
        <mxCell id="Hi4RVoLJQUnYDtdpyPbf-18" value="Cooling Water Pressure" style="rounded=1;whiteSpace=wrap;html=1;" parent="1" vertex="1">
          <mxGeometry x="400" y="1670" width="190" height="30" as="geometry" />
        </mxCell>
        <mxCell id="Hi4RVoLJQUnYDtdpyPbf-19" value="Exhaust Temperature" style="rounded=1;whiteSpace=wrap;html=1;" parent="1" vertex="1">
          <mxGeometry x="400" y="1770" width="190" height="30" as="geometry" />
        </mxCell>
        <mxCell id="Hi4RVoLJQUnYDtdpyPbf-20" value="Stop RPM Set Point" style="rounded=1;whiteSpace=wrap;html=1;" parent="1" vertex="1">
          <mxGeometry x="640" y="1265" width="190" height="30" as="geometry" />
        </mxCell>
        <mxCell id="Hi4RVoLJQUnYDtdpyPbf-21" value="Restart RPM Set Point" style="rounded=1;whiteSpace=wrap;html=1;" parent="1" vertex="1">
          <mxGeometry x="640" y="1320" width="190" height="30" as="geometry" />
        </mxCell>
        <mxCell id="Hi4RVoLJQUnYDtdpyPbf-22" value="Minimal RPM Set Point" style="rounded=1;whiteSpace=wrap;html=1;" parent="1" vertex="1">
          <mxGeometry x="640" y="1370" width="190" height="30" as="geometry" />
        </mxCell>
        <mxCell id="Hi4RVoLJQUnYDtdpyPbf-23" value="High Set Point" style="rounded=1;whiteSpace=wrap;html=1;" parent="1" vertex="1">
          <mxGeometry x="640" y="1440" width="190" height="30" as="geometry" />
        </mxCell>
        <mxCell id="Hi4RVoLJQUnYDtdpyPbf-24" value="Low Set Point" style="rounded=1;whiteSpace=wrap;html=1;" parent="1" vertex="1">
          <mxGeometry x="640" y="1490" width="190" height="30" as="geometry" />
        </mxCell>
        <mxCell id="Hi4RVoLJQUnYDtdpyPbf-25" value="" style="endArrow=classic;html=1;rounded=0;exitX=1;exitY=0.5;exitDx=0;exitDy=0;entryX=0;entryY=0.5;entryDx=0;entryDy=0;" parent="1" source="Hi4RVoLJQUnYDtdpyPbf-9" target="Hi4RVoLJQUnYDtdpyPbf-15" edge="1">
          <mxGeometry width="50" height="50" relative="1" as="geometry">
            <mxPoint x="590" y="1550" as="sourcePoint" />
            <mxPoint x="640" y="1500" as="targetPoint" />
          </mxGeometry>
        </mxCell>
        <mxCell id="Hi4RVoLJQUnYDtdpyPbf-26" value="" style="endArrow=classic;html=1;rounded=0;exitX=1;exitY=0.5;exitDx=0;exitDy=0;entryX=0;entryY=0.5;entryDx=0;entryDy=0;" parent="1" source="Hi4RVoLJQUnYDtdpyPbf-15" target="Hi4RVoLJQUnYDtdpyPbf-20" edge="1">
          <mxGeometry width="50" height="50" relative="1" as="geometry">
            <mxPoint x="640" y="1460" as="sourcePoint" />
            <mxPoint x="690" y="1410" as="targetPoint" />
          </mxGeometry>
        </mxCell>
        <mxCell id="Hi4RVoLJQUnYDtdpyPbf-27" value="" style="endArrow=classic;html=1;rounded=0;exitX=1;exitY=0.5;exitDx=0;exitDy=0;entryX=0;entryY=0.5;entryDx=0;entryDy=0;" parent="1" source="Hi4RVoLJQUnYDtdpyPbf-15" target="Hi4RVoLJQUnYDtdpyPbf-21" edge="1">
          <mxGeometry width="50" height="50" relative="1" as="geometry">
            <mxPoint x="640" y="1460" as="sourcePoint" />
            <mxPoint x="690" y="1410" as="targetPoint" />
          </mxGeometry>
        </mxCell>
        <mxCell id="Hi4RVoLJQUnYDtdpyPbf-28" value="" style="endArrow=classic;html=1;rounded=0;exitX=1;exitY=0.5;exitDx=0;exitDy=0;entryX=0;entryY=0.5;entryDx=0;entryDy=0;" parent="1" source="Hi4RVoLJQUnYDtdpyPbf-15" target="Hi4RVoLJQUnYDtdpyPbf-22" edge="1">
          <mxGeometry width="50" height="50" relative="1" as="geometry">
            <mxPoint x="560" y="1480" as="sourcePoint" />
            <mxPoint x="610" y="1430" as="targetPoint" />
          </mxGeometry>
        </mxCell>
        <mxCell id="Hi4RVoLJQUnYDtdpyPbf-29" value="" style="endArrow=classic;html=1;rounded=0;exitX=1;exitY=0.5;exitDx=0;exitDy=0;entryX=0;entryY=0.5;entryDx=0;entryDy=0;" parent="1" source="Hi4RVoLJQUnYDtdpyPbf-16" target="Hi4RVoLJQUnYDtdpyPbf-23" edge="1">
          <mxGeometry width="50" height="50" relative="1" as="geometry">
            <mxPoint x="690" y="1530" as="sourcePoint" />
            <mxPoint x="740" y="1480" as="targetPoint" />
          </mxGeometry>
        </mxCell>
        <mxCell id="Hi4RVoLJQUnYDtdpyPbf-30" value="" style="endArrow=classic;html=1;rounded=0;exitX=1;exitY=0.5;exitDx=0;exitDy=0;entryX=0;entryY=0.5;entryDx=0;entryDy=0;" parent="1" source="Hi4RVoLJQUnYDtdpyPbf-16" target="Hi4RVoLJQUnYDtdpyPbf-24" edge="1">
          <mxGeometry width="50" height="50" relative="1" as="geometry">
            <mxPoint x="1050" y="1720" as="sourcePoint" />
            <mxPoint x="1100" y="1670" as="targetPoint" />
          </mxGeometry>
        </mxCell>
        <mxCell id="Hi4RVoLJQUnYDtdpyPbf-31" value="High Set Point" style="rounded=1;whiteSpace=wrap;html=1;" parent="1" vertex="1">
          <mxGeometry x="640" y="1540" width="190" height="30" as="geometry" />
        </mxCell>
        <mxCell id="Hi4RVoLJQUnYDtdpyPbf-32" value="Low Set Point" style="rounded=1;whiteSpace=wrap;html=1;" parent="1" vertex="1">
          <mxGeometry x="640" y="1590" width="190" height="30" as="geometry" />
        </mxCell>
        <mxCell id="Hi4RVoLJQUnYDtdpyPbf-33" value="" style="endArrow=classic;html=1;rounded=0;exitX=1;exitY=0.5;exitDx=0;exitDy=0;entryX=0;entryY=0.5;entryDx=0;entryDy=0;" parent="1" target="Hi4RVoLJQUnYDtdpyPbf-31" edge="1">
          <mxGeometry width="50" height="50" relative="1" as="geometry">
            <mxPoint x="590" y="1585" as="sourcePoint" />
            <mxPoint x="740" y="1580" as="targetPoint" />
          </mxGeometry>
        </mxCell>
        <mxCell id="Hi4RVoLJQUnYDtdpyPbf-34" value="" style="endArrow=classic;html=1;rounded=0;exitX=1;exitY=0.5;exitDx=0;exitDy=0;entryX=0;entryY=0.5;entryDx=0;entryDy=0;" parent="1" target="Hi4RVoLJQUnYDtdpyPbf-32" edge="1">
          <mxGeometry width="50" height="50" relative="1" as="geometry">
            <mxPoint x="590" y="1585" as="sourcePoint" />
            <mxPoint x="1100" y="1770" as="targetPoint" />
          </mxGeometry>
        </mxCell>
        <mxCell id="Hi4RVoLJQUnYDtdpyPbf-35" value="High Set Point" style="rounded=1;whiteSpace=wrap;html=1;" parent="1" vertex="1">
          <mxGeometry x="640" y="1640" width="190" height="30" as="geometry" />
        </mxCell>
        <mxCell id="Hi4RVoLJQUnYDtdpyPbf-36" value="Low Set Point" style="rounded=1;whiteSpace=wrap;html=1;" parent="1" vertex="1">
          <mxGeometry x="640" y="1690" width="190" height="30" as="geometry" />
        </mxCell>
        <mxCell id="Hi4RVoLJQUnYDtdpyPbf-37" value="" style="endArrow=classic;html=1;rounded=0;exitX=1;exitY=0.5;exitDx=0;exitDy=0;entryX=0;entryY=0.5;entryDx=0;entryDy=0;" parent="1" source="Hi4RVoLJQUnYDtdpyPbf-18" target="Hi4RVoLJQUnYDtdpyPbf-35" edge="1">
          <mxGeometry width="50" height="50" relative="1" as="geometry">
            <mxPoint x="590" y="1685" as="sourcePoint" />
            <mxPoint x="740" y="1680" as="targetPoint" />
          </mxGeometry>
        </mxCell>
        <mxCell id="Hi4RVoLJQUnYDtdpyPbf-38" value="" style="endArrow=classic;html=1;rounded=0;entryX=0;entryY=0.5;entryDx=0;entryDy=0;exitX=1;exitY=0.5;exitDx=0;exitDy=0;" parent="1" source="Hi4RVoLJQUnYDtdpyPbf-18" target="Hi4RVoLJQUnYDtdpyPbf-36" edge="1">
          <mxGeometry width="50" height="50" relative="1" as="geometry">
            <mxPoint x="600" y="1730" as="sourcePoint" />
            <mxPoint x="1100" y="1870" as="targetPoint" />
          </mxGeometry>
        </mxCell>
        <mxCell id="Hi4RVoLJQUnYDtdpyPbf-39" value="High Set Point" style="rounded=1;whiteSpace=wrap;html=1;" parent="1" vertex="1">
          <mxGeometry x="640" y="1740" width="190" height="30" as="geometry" />
        </mxCell>
        <mxCell id="Hi4RVoLJQUnYDtdpyPbf-40" value="Low Set Point" style="rounded=1;whiteSpace=wrap;html=1;" parent="1" vertex="1">
          <mxGeometry x="640" y="1790" width="190" height="30" as="geometry" />
        </mxCell>
        <mxCell id="Hi4RVoLJQUnYDtdpyPbf-41" value="" style="endArrow=classic;html=1;rounded=0;entryX=0;entryY=0.5;entryDx=0;entryDy=0;exitX=1;exitY=0.5;exitDx=0;exitDy=0;" parent="1" source="Hi4RVoLJQUnYDtdpyPbf-19" target="Hi4RVoLJQUnYDtdpyPbf-39" edge="1">
          <mxGeometry width="50" height="50" relative="1" as="geometry">
            <mxPoint x="620" y="1780" as="sourcePoint" />
            <mxPoint x="740" y="1780" as="targetPoint" />
          </mxGeometry>
        </mxCell>
        <mxCell id="Hi4RVoLJQUnYDtdpyPbf-42" value="" style="endArrow=classic;html=1;rounded=0;entryX=0;entryY=0.5;entryDx=0;entryDy=0;exitX=1;exitY=0.5;exitDx=0;exitDy=0;" parent="1" source="Hi4RVoLJQUnYDtdpyPbf-19" target="Hi4RVoLJQUnYDtdpyPbf-40" edge="1">
          <mxGeometry width="50" height="50" relative="1" as="geometry">
            <mxPoint x="590" y="1820" as="sourcePoint" />
            <mxPoint x="1100" y="1970" as="targetPoint" />
          </mxGeometry>
        </mxCell>
        <mxCell id="Hi4RVoLJQUnYDtdpyPbf-44" value="" style="endArrow=classic;html=1;rounded=0;exitX=1;exitY=0.5;exitDx=0;exitDy=0;entryX=0;entryY=0.5;entryDx=0;entryDy=0;" parent="1" source="Hi4RVoLJQUnYDtdpyPbf-9" target="Hi4RVoLJQUnYDtdpyPbf-16" edge="1">
          <mxGeometry width="50" height="50" relative="1" as="geometry">
            <mxPoint x="990" y="1740" as="sourcePoint" />
            <mxPoint x="1040" y="1690" as="targetPoint" />
          </mxGeometry>
        </mxCell>
        <mxCell id="Hi4RVoLJQUnYDtdpyPbf-45" value="" style="endArrow=classic;html=1;rounded=0;exitX=1;exitY=0.5;exitDx=0;exitDy=0;entryX=0;entryY=0.5;entryDx=0;entryDy=0;" parent="1" source="Hi4RVoLJQUnYDtdpyPbf-9" target="Hi4RVoLJQUnYDtdpyPbf-18" edge="1">
          <mxGeometry width="50" height="50" relative="1" as="geometry">
            <mxPoint x="680" y="1700" as="sourcePoint" />
            <mxPoint x="730" y="1650" as="targetPoint" />
          </mxGeometry>
        </mxCell>
        <mxCell id="Hi4RVoLJQUnYDtdpyPbf-46" value="" style="endArrow=classic;html=1;rounded=0;exitX=1;exitY=0.5;exitDx=0;exitDy=0;entryX=0;entryY=0.75;entryDx=0;entryDy=0;" parent="1" source="Hi4RVoLJQUnYDtdpyPbf-9" target="Hi4RVoLJQUnYDtdpyPbf-19" edge="1">
          <mxGeometry width="50" height="50" relative="1" as="geometry">
            <mxPoint x="680" y="1700" as="sourcePoint" />
            <mxPoint x="730" y="1650" as="targetPoint" />
          </mxGeometry>
        </mxCell>
        <mxCell id="Hi4RVoLJQUnYDtdpyPbf-47" value="Start Stop Time Delay" style="rounded=1;whiteSpace=wrap;html=1;" parent="1" vertex="1">
          <mxGeometry x="400" y="1950" width="190" height="30" as="geometry" />
        </mxCell>
        <mxCell id="Hi4RVoLJQUnYDtdpyPbf-48" value="Frequency" style="rounded=1;whiteSpace=wrap;html=1;" parent="1" vertex="1">
          <mxGeometry x="400" y="2025" width="190" height="30" as="geometry" />
        </mxCell>
        <mxCell id="Hi4RVoLJQUnYDtdpyPbf-49" value="Engine Revolution" style="rounded=1;whiteSpace=wrap;html=1;" parent="1" vertex="1">
          <mxGeometry x="400" y="2140" width="188" height="30" as="geometry" />
        </mxCell>
        <mxCell id="Hi4RVoLJQUnYDtdpyPbf-54" value="Stop RPM Set Point" style="rounded=1;whiteSpace=wrap;html=1;" parent="1" vertex="1">
          <mxGeometry x="638" y="2087.5" width="190" height="30" as="geometry" />
        </mxCell>
        <mxCell id="Hi4RVoLJQUnYDtdpyPbf-55" value="Restart RPM Set Point" style="rounded=1;whiteSpace=wrap;html=1;" parent="1" vertex="1">
          <mxGeometry x="638" y="2142.5" width="190" height="30" as="geometry" />
        </mxCell>
        <mxCell id="Hi4RVoLJQUnYDtdpyPbf-56" value="Minimal RPM Set Point" style="rounded=1;whiteSpace=wrap;html=1;" parent="1" vertex="1">
          <mxGeometry x="638" y="2192.5" width="190" height="30" as="geometry" />
        </mxCell>
        <mxCell id="Hi4RVoLJQUnYDtdpyPbf-57" value="" style="endArrow=classic;html=1;rounded=0;exitX=1;exitY=0.5;exitDx=0;exitDy=0;entryX=0;entryY=0.5;entryDx=0;entryDy=0;" parent="1" target="Hi4RVoLJQUnYDtdpyPbf-54" edge="1">
          <mxGeometry width="50" height="50" relative="1" as="geometry">
            <mxPoint x="588" y="2157.5" as="sourcePoint" />
            <mxPoint x="688" y="2232.5" as="targetPoint" />
          </mxGeometry>
        </mxCell>
        <mxCell id="Hi4RVoLJQUnYDtdpyPbf-58" value="" style="endArrow=classic;html=1;rounded=0;exitX=1;exitY=0.5;exitDx=0;exitDy=0;entryX=0;entryY=0.5;entryDx=0;entryDy=0;" parent="1" target="Hi4RVoLJQUnYDtdpyPbf-55" edge="1">
          <mxGeometry width="50" height="50" relative="1" as="geometry">
            <mxPoint x="588" y="2157.5" as="sourcePoint" />
            <mxPoint x="688" y="2232.5" as="targetPoint" />
          </mxGeometry>
        </mxCell>
        <mxCell id="Hi4RVoLJQUnYDtdpyPbf-59" value="" style="endArrow=classic;html=1;rounded=0;exitX=1;exitY=0.5;exitDx=0;exitDy=0;entryX=0;entryY=0.5;entryDx=0;entryDy=0;" parent="1" target="Hi4RVoLJQUnYDtdpyPbf-56" edge="1">
          <mxGeometry width="50" height="50" relative="1" as="geometry">
            <mxPoint x="588" y="2157.5" as="sourcePoint" />
            <mxPoint x="608" y="2252.5" as="targetPoint" />
          </mxGeometry>
        </mxCell>
        <mxCell id="Hi4RVoLJQUnYDtdpyPbf-60" value="Lub oil Pressure" style="rounded=1;whiteSpace=wrap;html=1;" parent="1" vertex="1">
          <mxGeometry x="398" y="2280" width="190" height="30" as="geometry" />
        </mxCell>
        <mxCell id="Hi4RVoLJQUnYDtdpyPbf-61" value="Fuel oil Pressure" style="rounded=1;whiteSpace=wrap;html=1;" parent="1" vertex="1">
          <mxGeometry x="398" y="2380" width="190" height="30" as="geometry" />
        </mxCell>
        <mxCell id="Hi4RVoLJQUnYDtdpyPbf-62" value="Cooling Water Pressure" style="rounded=1;whiteSpace=wrap;html=1;" parent="1" vertex="1">
          <mxGeometry x="398" y="2480" width="190" height="30" as="geometry" />
        </mxCell>
        <mxCell id="Hi4RVoLJQUnYDtdpyPbf-63" value="Exhaust Temperature" style="rounded=1;whiteSpace=wrap;html=1;" parent="1" vertex="1">
          <mxGeometry x="398" y="2580" width="190" height="30" as="geometry" />
        </mxCell>
        <mxCell id="Hi4RVoLJQUnYDtdpyPbf-64" value="High Set Point" style="rounded=1;whiteSpace=wrap;html=1;" parent="1" vertex="1">
          <mxGeometry x="638" y="2250" width="190" height="30" as="geometry" />
        </mxCell>
        <mxCell id="Hi4RVoLJQUnYDtdpyPbf-65" value="Low Set Point" style="rounded=1;whiteSpace=wrap;html=1;" parent="1" vertex="1">
          <mxGeometry x="638" y="2300" width="190" height="30" as="geometry" />
        </mxCell>
        <mxCell id="Hi4RVoLJQUnYDtdpyPbf-66" value="" style="endArrow=classic;html=1;rounded=0;exitX=1;exitY=0.5;exitDx=0;exitDy=0;entryX=0;entryY=0.5;entryDx=0;entryDy=0;" parent="1" source="Hi4RVoLJQUnYDtdpyPbf-60" target="Hi4RVoLJQUnYDtdpyPbf-64" edge="1">
          <mxGeometry width="50" height="50" relative="1" as="geometry">
            <mxPoint x="688" y="2340" as="sourcePoint" />
            <mxPoint x="738" y="2290" as="targetPoint" />
          </mxGeometry>
        </mxCell>
        <mxCell id="Hi4RVoLJQUnYDtdpyPbf-67" value="" style="endArrow=classic;html=1;rounded=0;exitX=1;exitY=0.5;exitDx=0;exitDy=0;entryX=0;entryY=0.5;entryDx=0;entryDy=0;" parent="1" source="Hi4RVoLJQUnYDtdpyPbf-60" target="Hi4RVoLJQUnYDtdpyPbf-65" edge="1">
          <mxGeometry width="50" height="50" relative="1" as="geometry">
            <mxPoint x="1048" y="2530" as="sourcePoint" />
            <mxPoint x="1098" y="2480" as="targetPoint" />
          </mxGeometry>
        </mxCell>
        <mxCell id="Hi4RVoLJQUnYDtdpyPbf-68" value="High Set Point" style="rounded=1;whiteSpace=wrap;html=1;" parent="1" vertex="1">
          <mxGeometry x="638" y="2350" width="190" height="30" as="geometry" />
        </mxCell>
        <mxCell id="Hi4RVoLJQUnYDtdpyPbf-69" value="Low Set Point" style="rounded=1;whiteSpace=wrap;html=1;" parent="1" vertex="1">
          <mxGeometry x="638" y="2400" width="190" height="30" as="geometry" />
        </mxCell>
        <mxCell id="Hi4RVoLJQUnYDtdpyPbf-70" value="" style="endArrow=classic;html=1;rounded=0;exitX=1;exitY=0.5;exitDx=0;exitDy=0;entryX=0;entryY=0.5;entryDx=0;entryDy=0;" parent="1" target="Hi4RVoLJQUnYDtdpyPbf-68" edge="1">
          <mxGeometry width="50" height="50" relative="1" as="geometry">
            <mxPoint x="588" y="2395" as="sourcePoint" />
            <mxPoint x="738" y="2390" as="targetPoint" />
          </mxGeometry>
        </mxCell>
        <mxCell id="Hi4RVoLJQUnYDtdpyPbf-71" value="" style="endArrow=classic;html=1;rounded=0;exitX=1;exitY=0.5;exitDx=0;exitDy=0;entryX=0;entryY=0.5;entryDx=0;entryDy=0;" parent="1" target="Hi4RVoLJQUnYDtdpyPbf-69" edge="1">
          <mxGeometry width="50" height="50" relative="1" as="geometry">
            <mxPoint x="588" y="2395" as="sourcePoint" />
            <mxPoint x="1098" y="2580" as="targetPoint" />
          </mxGeometry>
        </mxCell>
        <mxCell id="Hi4RVoLJQUnYDtdpyPbf-72" value="High Set Point" style="rounded=1;whiteSpace=wrap;html=1;" parent="1" vertex="1">
          <mxGeometry x="638" y="2450" width="190" height="30" as="geometry" />
        </mxCell>
        <mxCell id="Hi4RVoLJQUnYDtdpyPbf-73" value="Low Set Point" style="rounded=1;whiteSpace=wrap;html=1;" parent="1" vertex="1">
          <mxGeometry x="638" y="2500" width="190" height="30" as="geometry" />
        </mxCell>
        <mxCell id="Hi4RVoLJQUnYDtdpyPbf-74" value="" style="endArrow=classic;html=1;rounded=0;exitX=1;exitY=0.5;exitDx=0;exitDy=0;entryX=0;entryY=0.5;entryDx=0;entryDy=0;" parent="1" source="Hi4RVoLJQUnYDtdpyPbf-62" target="Hi4RVoLJQUnYDtdpyPbf-72" edge="1">
          <mxGeometry width="50" height="50" relative="1" as="geometry">
            <mxPoint x="588" y="2495" as="sourcePoint" />
            <mxPoint x="738" y="2490" as="targetPoint" />
          </mxGeometry>
        </mxCell>
        <mxCell id="Hi4RVoLJQUnYDtdpyPbf-75" value="" style="endArrow=classic;html=1;rounded=0;entryX=0;entryY=0.5;entryDx=0;entryDy=0;exitX=1;exitY=0.5;exitDx=0;exitDy=0;" parent="1" source="Hi4RVoLJQUnYDtdpyPbf-62" target="Hi4RVoLJQUnYDtdpyPbf-73" edge="1">
          <mxGeometry width="50" height="50" relative="1" as="geometry">
            <mxPoint x="598" y="2540" as="sourcePoint" />
            <mxPoint x="1098" y="2680" as="targetPoint" />
          </mxGeometry>
        </mxCell>
        <mxCell id="Hi4RVoLJQUnYDtdpyPbf-76" value="High Set Point" style="rounded=1;whiteSpace=wrap;html=1;" parent="1" vertex="1">
          <mxGeometry x="638" y="2550" width="190" height="30" as="geometry" />
        </mxCell>
        <mxCell id="Hi4RVoLJQUnYDtdpyPbf-77" value="Low Set Point" style="rounded=1;whiteSpace=wrap;html=1;" parent="1" vertex="1">
          <mxGeometry x="638" y="2600" width="190" height="30" as="geometry" />
        </mxCell>
        <mxCell id="Hi4RVoLJQUnYDtdpyPbf-78" value="" style="endArrow=classic;html=1;rounded=0;entryX=0;entryY=0.5;entryDx=0;entryDy=0;exitX=1;exitY=0.5;exitDx=0;exitDy=0;" parent="1" source="Hi4RVoLJQUnYDtdpyPbf-63" target="Hi4RVoLJQUnYDtdpyPbf-76" edge="1">
          <mxGeometry width="50" height="50" relative="1" as="geometry">
            <mxPoint x="618" y="2590" as="sourcePoint" />
            <mxPoint x="738" y="2590" as="targetPoint" />
          </mxGeometry>
        </mxCell>
        <mxCell id="Hi4RVoLJQUnYDtdpyPbf-79" value="" style="endArrow=classic;html=1;rounded=0;entryX=0;entryY=0.5;entryDx=0;entryDy=0;exitX=1;exitY=0.5;exitDx=0;exitDy=0;" parent="1" source="Hi4RVoLJQUnYDtdpyPbf-63" target="Hi4RVoLJQUnYDtdpyPbf-77" edge="1">
          <mxGeometry width="50" height="50" relative="1" as="geometry">
            <mxPoint x="588" y="2630" as="sourcePoint" />
            <mxPoint x="1098" y="2780" as="targetPoint" />
          </mxGeometry>
        </mxCell>
        <mxCell id="Hi4RVoLJQUnYDtdpyPbf-80" value="" style="endArrow=classic;html=1;rounded=0;exitX=1;exitY=0.5;exitDx=0;exitDy=0;entryX=0;entryY=0.5;entryDx=0;entryDy=0;" parent="1" source="Hi4RVoLJQUnYDtdpyPbf-11" target="Hi4RVoLJQUnYDtdpyPbf-47" edge="1">
          <mxGeometry width="50" height="50" relative="1" as="geometry">
            <mxPoint x="660" y="2300" as="sourcePoint" />
            <mxPoint x="710" y="2250" as="targetPoint" />
          </mxGeometry>
        </mxCell>
        <mxCell id="Hi4RVoLJQUnYDtdpyPbf-81" value="" style="endArrow=classic;html=1;rounded=0;exitX=1;exitY=0.5;exitDx=0;exitDy=0;entryX=0;entryY=0.5;entryDx=0;entryDy=0;" parent="1" source="Hi4RVoLJQUnYDtdpyPbf-11" target="Hi4RVoLJQUnYDtdpyPbf-48" edge="1">
          <mxGeometry width="50" height="50" relative="1" as="geometry">
            <mxPoint x="660" y="2200" as="sourcePoint" />
            <mxPoint x="710" y="2150" as="targetPoint" />
          </mxGeometry>
        </mxCell>
        <mxCell id="Hi4RVoLJQUnYDtdpyPbf-82" value="" style="endArrow=classic;html=1;rounded=0;exitX=1;exitY=0.5;exitDx=0;exitDy=0;entryX=0;entryY=0.5;entryDx=0;entryDy=0;" parent="1" source="Hi4RVoLJQUnYDtdpyPbf-11" target="Hi4RVoLJQUnYDtdpyPbf-49" edge="1">
          <mxGeometry width="50" height="50" relative="1" as="geometry">
            <mxPoint x="660" y="2200" as="sourcePoint" />
            <mxPoint x="710" y="2150" as="targetPoint" />
          </mxGeometry>
        </mxCell>
        <mxCell id="Hi4RVoLJQUnYDtdpyPbf-83" value="" style="endArrow=classic;html=1;rounded=0;exitX=1;exitY=0.5;exitDx=0;exitDy=0;entryX=0;entryY=0.5;entryDx=0;entryDy=0;" parent="1" source="Hi4RVoLJQUnYDtdpyPbf-11" target="Hi4RVoLJQUnYDtdpyPbf-60" edge="1">
          <mxGeometry width="50" height="50" relative="1" as="geometry">
            <mxPoint x="690" y="2370" as="sourcePoint" />
            <mxPoint x="740" y="2320" as="targetPoint" />
          </mxGeometry>
        </mxCell>
        <mxCell id="Hi4RVoLJQUnYDtdpyPbf-84" value="" style="endArrow=classic;html=1;rounded=0;exitX=1;exitY=0.5;exitDx=0;exitDy=0;entryX=0;entryY=0.5;entryDx=0;entryDy=0;" parent="1" source="Hi4RVoLJQUnYDtdpyPbf-11" target="Hi4RVoLJQUnYDtdpyPbf-61" edge="1">
          <mxGeometry width="50" height="50" relative="1" as="geometry">
            <mxPoint x="690" y="2480" as="sourcePoint" />
            <mxPoint x="740" y="2430" as="targetPoint" />
          </mxGeometry>
        </mxCell>
        <mxCell id="Hi4RVoLJQUnYDtdpyPbf-85" value="" style="endArrow=classic;html=1;rounded=0;exitX=1;exitY=0.5;exitDx=0;exitDy=0;entryX=0;entryY=0.5;entryDx=0;entryDy=0;" parent="1" source="Hi4RVoLJQUnYDtdpyPbf-11" target="Hi4RVoLJQUnYDtdpyPbf-62" edge="1">
          <mxGeometry width="50" height="50" relative="1" as="geometry">
            <mxPoint x="690" y="2480" as="sourcePoint" />
            <mxPoint x="740" y="2430" as="targetPoint" />
          </mxGeometry>
        </mxCell>
        <mxCell id="Hi4RVoLJQUnYDtdpyPbf-87" value="" style="endArrow=classic;html=1;rounded=0;exitX=1;exitY=0.5;exitDx=0;exitDy=0;entryX=0;entryY=0.5;entryDx=0;entryDy=0;" parent="1" source="Hi4RVoLJQUnYDtdpyPbf-11" target="Hi4RVoLJQUnYDtdpyPbf-63" edge="1">
          <mxGeometry width="50" height="50" relative="1" as="geometry">
            <mxPoint x="730" y="2530" as="sourcePoint" />
            <mxPoint x="780" y="2480" as="targetPoint" />
          </mxGeometry>
        </mxCell>
        <mxCell id="Hi4RVoLJQUnYDtdpyPbf-88" value="" style="endArrow=classic;html=1;rounded=0;exitX=1;exitY=0.5;exitDx=0;exitDy=0;entryX=0;entryY=0.5;entryDx=0;entryDy=0;" parent="1" source="Hi4RVoLJQUnYDtdpyPbf-2" target="Hi4RVoLJQUnYDtdpyPbf-11" edge="1">
          <mxGeometry width="50" height="50" relative="1" as="geometry">
            <mxPoint x="880" y="1810" as="sourcePoint" />
            <mxPoint x="930" y="1760" as="targetPoint" />
          </mxGeometry>
        </mxCell>
        <mxCell id="Hi4RVoLJQUnYDtdpyPbf-89" value="Password" style="rounded=1;whiteSpace=wrap;html=1;" parent="1" vertex="1">
          <mxGeometry x="190" y="2740" width="120" height="30" as="geometry" />
        </mxCell>
        <mxCell id="Hi4RVoLJQUnYDtdpyPbf-90" value="Username" style="rounded=1;whiteSpace=wrap;html=1;" parent="1" vertex="1">
          <mxGeometry x="190" y="2690" width="120" height="30" as="geometry" />
        </mxCell>
        <mxCell id="Hi4RVoLJQUnYDtdpyPbf-91" value="Created at" style="rounded=1;whiteSpace=wrap;html=1;" parent="1" vertex="1">
          <mxGeometry x="190" y="2790" width="120" height="30" as="geometry" />
        </mxCell>
        <mxCell id="Hi4RVoLJQUnYDtdpyPbf-92" value="Updated at" style="rounded=1;whiteSpace=wrap;html=1;" parent="1" vertex="1">
          <mxGeometry x="190" y="2840" width="120" height="30" as="geometry" />
        </mxCell>
        <mxCell id="Hi4RVoLJQUnYDtdpyPbf-94" value="" style="endArrow=classic;html=1;rounded=0;exitX=1;exitY=0.5;exitDx=0;exitDy=0;entryX=0;entryY=0.5;entryDx=0;entryDy=0;" parent="1" source="Hi4RVoLJQUnYDtdpyPbf-1" target="Hi4RVoLJQUnYDtdpyPbf-90" edge="1">
          <mxGeometry width="50" height="50" relative="1" as="geometry">
            <mxPoint x="580" y="2870" as="sourcePoint" />
            <mxPoint x="630" y="2820" as="targetPoint" />
          </mxGeometry>
        </mxCell>
        <mxCell id="Hi4RVoLJQUnYDtdpyPbf-95" value="" style="endArrow=classic;html=1;rounded=0;exitX=1;exitY=0.5;exitDx=0;exitDy=0;entryX=0;entryY=0.5;entryDx=0;entryDy=0;" parent="1" source="Hi4RVoLJQUnYDtdpyPbf-1" target="Hi4RVoLJQUnYDtdpyPbf-89" edge="1">
          <mxGeometry width="50" height="50" relative="1" as="geometry">
            <mxPoint x="350" y="2860" as="sourcePoint" />
            <mxPoint x="400" y="2810" as="targetPoint" />
          </mxGeometry>
        </mxCell>
        <mxCell id="Hi4RVoLJQUnYDtdpyPbf-96" value="" style="endArrow=classic;html=1;rounded=0;exitX=1;exitY=0.5;exitDx=0;exitDy=0;entryX=0;entryY=0.5;entryDx=0;entryDy=0;" parent="1" source="Hi4RVoLJQUnYDtdpyPbf-1" target="Hi4RVoLJQUnYDtdpyPbf-91" edge="1">
          <mxGeometry width="50" height="50" relative="1" as="geometry">
            <mxPoint x="350" y="2860" as="sourcePoint" />
            <mxPoint x="400" y="2810" as="targetPoint" />
          </mxGeometry>
        </mxCell>
        <mxCell id="Hi4RVoLJQUnYDtdpyPbf-97" value="" style="endArrow=classic;html=1;rounded=0;exitX=1;exitY=0.5;exitDx=0;exitDy=0;entryX=0;entryY=0.5;entryDx=0;entryDy=0;" parent="1" source="Hi4RVoLJQUnYDtdpyPbf-1" target="Hi4RVoLJQUnYDtdpyPbf-92" edge="1">
          <mxGeometry width="50" height="50" relative="1" as="geometry">
            <mxPoint x="350" y="2860" as="sourcePoint" />
            <mxPoint x="400" y="2810" as="targetPoint" />
          </mxGeometry>
        </mxCell>
        <mxCell id="Hi4RVoLJQUnYDtdpyPbf-98" value="Time Record" style="rounded=1;whiteSpace=wrap;html=1;" parent="1" vertex="1">
          <mxGeometry x="200" y="570" width="120" height="20" as="geometry" />
        </mxCell>
        <mxCell id="Hi4RVoLJQUnYDtdpyPbf-99" value="Id" style="rounded=1;whiteSpace=wrap;html=1;" parent="1" vertex="1">
          <mxGeometry x="198" y="530" width="120" height="20" as="geometry" />
        </mxCell>
        <mxCell id="Hi4RVoLJQUnYDtdpyPbf-100" value="" style="endArrow=classic;html=1;rounded=0;exitX=1;exitY=0.5;exitDx=0;exitDy=0;entryX=0;entryY=0.5;entryDx=0;entryDy=0;" parent="1" source="nhWFI6asB0Gc7cAQbuDx-2" target="Hi4RVoLJQUnYDtdpyPbf-98" edge="1">
          <mxGeometry width="50" height="50" relative="1" as="geometry">
            <mxPoint x="350" y="720" as="sourcePoint" />
            <mxPoint x="400" y="670" as="targetPoint" />
          </mxGeometry>
        </mxCell>
        <mxCell id="Hi4RVoLJQUnYDtdpyPbf-101" value="" style="endArrow=classic;html=1;rounded=0;exitX=1;exitY=0.5;exitDx=0;exitDy=0;entryX=0;entryY=0.5;entryDx=0;entryDy=0;" parent="1" source="nhWFI6asB0Gc7cAQbuDx-2" target="Hi4RVoLJQUnYDtdpyPbf-99" edge="1">
          <mxGeometry width="50" height="50" relative="1" as="geometry">
            <mxPoint x="350" y="720" as="sourcePoint" />
            <mxPoint x="400" y="670" as="targetPoint" />
          </mxGeometry>
        </mxCell>
        <mxCell id="wCn_OduX-h2ZmvO0dGk3-1" value="Alarm" style="rounded=1;whiteSpace=wrap;html=1;" parent="1" vertex="1">
          <mxGeometry x="200" y="880" width="120" height="20" as="geometry" />
        </mxCell>
        <mxCell id="wCn_OduX-h2ZmvO0dGk3-2" value="Active Time" style="rounded=1;whiteSpace=wrap;html=1;" parent="1" vertex="1">
          <mxGeometry x="360" y="840" width="160" height="20" as="geometry" />
        </mxCell>
        <mxCell id="wCn_OduX-h2ZmvO0dGk3-3" value="Description" style="rounded=1;whiteSpace=wrap;html=1;" parent="1" vertex="1">
          <mxGeometry x="360" y="880" width="160" height="20" as="geometry" />
        </mxCell>
        <mxCell id="wCn_OduX-h2ZmvO0dGk3-4" value="Status" style="rounded=1;whiteSpace=wrap;html=1;" parent="1" vertex="1">
          <mxGeometry x="360" y="920" width="160" height="20" as="geometry" />
        </mxCell>
        <mxCell id="wCn_OduX-h2ZmvO0dGk3-5" value="" style="endArrow=classic;html=1;rounded=0;exitX=1;exitY=0.5;exitDx=0;exitDy=0;entryX=0;entryY=0.5;entryDx=0;entryDy=0;" parent="1" source="wCn_OduX-h2ZmvO0dGk3-1" target="wCn_OduX-h2ZmvO0dGk3-2" edge="1">
          <mxGeometry width="50" height="50" relative="1" as="geometry">
            <mxPoint x="550" y="900" as="sourcePoint" />
            <mxPoint x="600" y="850" as="targetPoint" />
          </mxGeometry>
        </mxCell>
        <mxCell id="wCn_OduX-h2ZmvO0dGk3-6" value="" style="endArrow=classic;html=1;rounded=0;exitX=1;exitY=0.5;exitDx=0;exitDy=0;entryX=0;entryY=0.5;entryDx=0;entryDy=0;" parent="1" source="wCn_OduX-h2ZmvO0dGk3-1" target="wCn_OduX-h2ZmvO0dGk3-3" edge="1">
          <mxGeometry width="50" height="50" relative="1" as="geometry">
            <mxPoint x="550" y="900" as="sourcePoint" />
            <mxPoint x="600" y="850" as="targetPoint" />
          </mxGeometry>
        </mxCell>
        <mxCell id="wCn_OduX-h2ZmvO0dGk3-7" value="" style="endArrow=classic;html=1;rounded=0;exitX=1;exitY=0.5;exitDx=0;exitDy=0;entryX=0;entryY=0.5;entryDx=0;entryDy=0;" parent="1" source="wCn_OduX-h2ZmvO0dGk3-1" target="wCn_OduX-h2ZmvO0dGk3-4" edge="1">
          <mxGeometry width="50" height="50" relative="1" as="geometry">
            <mxPoint x="550" y="900" as="sourcePoint" />
            <mxPoint x="600" y="850" as="targetPoint" />
          </mxGeometry>
        </mxCell>
        <mxCell id="wCn_OduX-h2ZmvO0dGk3-8" value="" style="endArrow=classic;html=1;rounded=0;exitX=1;exitY=0.5;exitDx=0;exitDy=0;entryX=0;entryY=0.5;entryDx=0;entryDy=0;" parent="1" source="nhWFI6asB0Gc7cAQbuDx-2" target="wCn_OduX-h2ZmvO0dGk3-1" edge="1">
          <mxGeometry width="50" height="50" relative="1" as="geometry">
            <mxPoint x="300" y="840" as="sourcePoint" />
            <mxPoint x="350" y="790" as="targetPoint" />
          </mxGeometry>
        </mxCell>
      </root>
    </mxGraphModel>
  </diagram>
</mxfile>
